<?xml version="1.0" encoding="UTF-8"?>
<svg id="Layer_2" data-name="Layer 2" xmlns="http://www.w3.org/2000/svg" viewBox="0 0 1411.07 1710.13">
  <defs>
    <style>
      .cls-1 {
        fill: #b8a5ce;
      }
    </style>
  </defs>
  <rect class="cls-1" x="29.03" y="31.51" width="1353" height="55" rx="27.5" ry="27.5"/>
  <rect class="cls-1" x="29.03" y="103.88" width="1353" height="55" rx="27.5" ry="27.5"/>
  <rect class="cls-1" x="29.03" y="176.25" width="1353" height="55" rx="27.5" ry="27.5"/>
  <rect class="cls-1" x="29.03" y="248.62" width="1353" height="55" rx="27.5" ry="27.5"/>
  <rect class="cls-1" x="29.03" y="320.99" width="1353" height="55" rx="27.5" ry="27.5"/>
  <rect class="cls-1" x="29.03" y="393.35" width="1353" height="55" rx="27.5" ry="27.5"/>
  <rect class="cls-1" x="29.03" y="465.72" width="1353" height="55" rx="27.5" ry="27.5"/>
  <rect class="cls-1" x="29.03" y="538.09" width="1353" height="55" rx="27.5" ry="27.5"/>
  <rect class="cls-1" x="29.03" y="610.46" width="1353" height="55" rx="27.5" ry="27.5"/>
  <rect class="cls-1" x="29.03" y="682.83" width="1353" height="55" rx="27.5" ry="27.5"/>
  <rect class="cls-1" x="29.03" y="755.2" width="1353" height="55" rx="27.5" ry="27.5"/>
  <rect class="cls-1" x="29.03" y="827.56" width="1353" height="55" rx="27.5" ry="27.5"/>
  <rect class="cls-1" x="29.03" y="899.93" width="1353" height="55" rx="27.5" ry="27.5"/>
  <rect class="cls-1" x="29.03" y="972.3" width="1353" height="55" rx="27.5" ry="27.5"/>
  <rect class="cls-1" x="29.03" y="1044.67" width="1353" height="55" rx="27.5" ry="27.5"/>
  <rect class="cls-1" x="29.03" y="1117.04" width="1353" height="55" rx="27.5" ry="27.5"/>
  <rect class="cls-1" x="29.03" y="1189.41" width="1353" height="55" rx="27.5" ry="27.5"/>
  <rect class="cls-1" x="29.03" y="1261.77" width="1353" height="55" rx="27.5" ry="27.5"/>
  <rect class="cls-1" x="29.03" y="1334.14" width="1353" height="55" rx="27.5" ry="27.5"/>
  <rect class="cls-1" x="29.03" y="1406.51" width="1353" height="55" rx="27.5" ry="27.5"/>
  <rect class="cls-1" x="29.03" y="1478.88" width="1353" height="55" rx="27.5" ry="27.5"/>
  <rect class="cls-1" x="29.03" y="1551.25" width="1353" height="55" rx="27.5" ry="27.5"/>
  <rect class="cls-1" x="29.03" y="1623.62" width="1353" height="55" rx="27.5" ry="27.5"/>
</svg>