<?xml version="1.0" encoding="UTF-8"?>
<svg id="Layer_1" data-name="Layer 1" xmlns="http://www.w3.org/2000/svg" viewBox="0 0 502.07 379.26">
  <defs>
    <style>
      .cls-1 {
        fill: #fff;
      }

      .cls-2 {
        fill: #130d5e;
        stroke: #fff;
        stroke-width: 15px;
      }
    </style>
  </defs>
  <g id="Layer_2" data-name="Layer 2">
    <path class="cls-2" d="M494.69,355.83l-161.4-51.31c-30.4,13.51-65.77,21.25-103.51,21.25-113.58,0-205.65-70.07-205.65-156.5S116.2,12.77,229.78,12.77s205.66,70.07,205.66,156.5c0,38.73-18.49,74.18-49.13,101.51l108.38,85.05h0Z"/>
  </g>
  <g>
    <path class="cls-1" d="M105.53,125.23h.02c-1.26,4.4-2.46,8.98-3.62,13.73-1.16,4.75-2.25,9.52-3.26,14.3-1.01,4.78-1.88,9.46-2.61,14.05-.19,1.45-.71,2.7-1.56,3.77-.84,1.06-1.81,1.89-2.9,2.5-1.09.6-2.1.89-3.04.87-.94-.02-1.7-.37-2.28-1.05s-.75-1.79-.51-3.33c.77-4.73,1.59-9.64,2.46-14.74.87-5.09,1.87-10.2,3-15.32,1.13-5.12,2.4-10.14,3.8-15.06.39-1.3,1.05-2.33,1.99-3.08s1.97-1.23,3.08-1.45c1.11-.22,2.16-.19,3.15.07.99.27,1.71.8,2.17,1.59.46.8.5,1.85.11,3.15Z"/>
    <path class="cls-1" d="M156.15,123.79h.01c-1.11,4.73-2.26,9.52-3.44,14.37-1.18,4.85-2.34,9.73-3.48,14.63-1.13,4.9-2.28,9.81-3.44,14.74-.34,1.45-.88,2.64-1.63,3.58s-1.57,1.59-2.46,1.96c-.68.28-1.32.38-1.92.3-.2.06-.4.11-.6.14-.99.17-1.77-.08-2.35-.76-1.84-1.79-3.72-3.73-5.65-5.83-1.93-2.1-3.81-4.36-5.65-6.77-1.83-2.41-3.56-5.03-5.18-7.86-.8-1.39-1.54-2.83-2.24-4.34-.02.13-.05.26-.07.39-1.28,7.19-2.67,14.44-4.16,21.72-.29,1.3-.88,2.41-1.77,3.33-.89.92-1.91,1.59-3.04,2.03-1.13.43-2.21.6-3.22.51-1.01-.1-1.8-.5-2.35-1.19-.55-.7-.66-1.73-.33-3.08h-.02c1.4-6.81,2.93-13.64,4.6-20.49s3.25-13.81,4.74-20.86c.29-1.3.84-2.47,1.67-3.51.82-1.04,1.75-1.87,2.79-2.5,1.04-.63,2-.98,2.9-1.05.89-.07,1.58.18,2.06.76.09.11.16.23.21.36.01.01.02.02.02.03.23.36.39.84.48,1.43h.01c.53,3.22,1.4,6.33,2.61,9.3,1.21,2.97,2.59,5.78,4.16,8.44,1.57,2.66,3.25,5.17,5.03,7.53,1.73,2.3,3.5,4.46,5.3,6.5.22-1.1.44-2.21.66-3.32.94-4.78,1.89-9.59,2.86-14.45.97-4.85,1.98-9.62,3.04-14.3.34-1.4.94-2.58,1.81-3.55.87-.96,1.82-1.67,2.86-2.1,1.04-.43,2.02-.6,2.93-.51.92.1,1.59.52,2.03,1.27.43.75.51,1.8.22,3.15Z"/>
    <path class="cls-1" d="M210.72,130.94c-.36-2.51-1.2-4.57-2.53-6.19-1.33-1.62-2.98-2.86-4.96-3.73s-4.25-1.45-6.81-1.74c-2.56-.29-5.25-.33-8.07-.11-2.83.22-5.76.61-8.8,1.16-3.04.56-6.04,1.18-8.98,1.85-.33.15-.83.47-1.48.98-.65.51-1.33,1.13-2.03,1.85-.7.73-1.3,1.46-1.81,2.21s-.86,1.37-1.05,1.85c-1.3,3.86-2.45,7.91-3.44,12.13-.99,4.22-1.85,8.51-2.57,12.85-.58,3.52-.91,7.02-1.01,10.5-.09,3.48-.02,6.74.22,9.78v-.03c.04,1.3.43,2.12,1.15,2.46.46.21.97.28,1.55.19.23.04.48.05.75.04,3.71-.19,7.39-.74,11.04-1.63,3.65-.9,7.2-2.08,10.65-3.55,3.45-1.47,6.68-3.24,9.67-5.32,3-2.07,5.71-4.45,8.15-7.13,2.44-2.68,4.5-5.64,6.19-8.87,1.69-3.24,2.87-6.71,3.55-10.43.78-3.57.98-6.61.62-9.12ZM200.4,143.75c-.34,1.93-1.06,3.85-2.17,5.76-1.11,1.9-2.61,3.74-4.49,5.5-1.88,1.77-4.14,3.37-6.77,4.82-2.64,1.44-5.7,2.64-9.2,3.58-3.17.85-6.64,1.44-10.45,1.76-.09-2.08-.12-4.2-.08-6.34.05-2.97.32-6,.8-9.09.72-4.2,1.52-8.21,2.39-12.02.37-1.61.76-3.18,1.18-4.69,2.63-.52,5.12-.93,7.47-1.24,3.69-.48,6.98-.62,9.85-.43,2.87.2,5.25.75,7.13,1.67,1.88.92,3.21,2.26,3.98,4.02s.89,4,.36,6.7Z"/>
    <path class="cls-1" d="M266.92,136.43c-.36-2.68-1.16-5.09-2.39-7.21-1.23-2.13-2.82-3.95-4.78-5.47-1.96-1.52-4.17-2.69-6.63-3.51-2.46-.82-5.1-1.23-8.04-1.23s-5.89.6-8.83,1.81c-2.95,1.21-5.78,2.88-8.51,5-2.73,2.12-5.25,4.6-7.57,7.42s-4.28,5.9-5.9,9.23c-1.62,3.34-2.79,6.79-3.51,10.36h.02c-.63,3.14-.74,6.05-.33,8.73.4,2.68,1.35,5.03,2.82,7.06,1.47,2.02,3.53,3.61,6.19,4.74,2.65,1.13,5.89,1.7,9.7,1.7,2.51,0,5.08-.29,7.71-.87,2.64-.57,5.23-1.42,7.79-2.53,2.55-1.11,4.99-2.49,7.31-4.16,2.32-1.67,4.45-3.61,6.41-5.83,1.96-2.22,3.62-4.71,5-7.46,1.37-2.75,2.37-5.77,3-9.05.72-3.14.9-6.05.54-8.73ZM256.7,148.92c-.29,1.5-.81,2.93-1.56,4.31-.75,1.37-1.72,2.63-2.9,3.76-1.18,1.13-2.62,2.15-4.31,3.04-1.7.9-3.65,1.57-5.87,2.03-2.22.46-4.69.69-7.39.69-2.51,0-4.65-.25-6.41-.76s-3.2-1.21-4.31-2.1c-1.11-.89-1.95-1.93-2.53-3.11-.58-1.19-.95-2.44-1.09-3.77-.15-1.33-.1-2.65.14-3.95h.02c.48-2.31,1.1-4.42,1.85-6.33s1.66-3.58,2.75-5c1.08-1.43,2.34-2.61,3.76-3.55,1.42-.94,3.02-1.66,4.78-2.14s3.73-.72,5.9-.72c2.51,0,4.77.33,6.77.98,2.01.65,3.73,1.55,5.18,2.71,1.45,1.16,2.6,2.5,3.44,4.02.85,1.53,1.43,3.13,1.74,4.82.32,1.69.33,3.38.04,5.07Z"/>
    <path class="cls-1" d="M324.93,136.43c-.36-2.68-1.16-5.09-2.39-7.21-1.23-2.13-2.82-3.95-4.78-5.47-1.96-1.52-4.17-2.69-6.63-3.51-2.46-.82-5.1-1.23-8.04-1.23s-5.89.6-8.83,1.81c-2.95,1.21-5.78,2.88-8.51,5-2.73,2.12-5.25,4.6-7.57,7.42-2.32,2.82-4.28,5.9-5.9,9.23-1.62,3.34-2.79,6.79-3.51,10.36h.02c-.63,3.14-.74,6.05-.33,8.73.4,2.68,1.35,5.03,2.82,7.06,1.47,2.02,3.53,3.61,6.19,4.74,2.65,1.13,5.89,1.7,9.7,1.7,2.51,0,5.08-.29,7.71-.87,2.64-.57,5.23-1.42,7.79-2.53,2.55-1.11,4.99-2.49,7.31-4.16,2.32-1.67,4.45-3.61,6.41-5.83,1.96-2.22,3.62-4.71,5-7.46,1.37-2.75,2.37-5.77,3-9.05.72-3.14.9-6.05.54-8.73ZM314.7,148.92c-.29,1.5-.81,2.93-1.56,4.31-.75,1.37-1.72,2.63-2.9,3.76-1.18,1.13-2.62,2.15-4.31,3.04-1.7.9-3.65,1.57-5.87,2.03-2.22.46-4.69.69-7.39.69-2.51,0-4.65-.25-6.41-.76s-3.2-1.21-4.31-2.1c-1.11-.89-1.95-1.93-2.53-3.11-.58-1.19-.95-2.44-1.09-3.77-.15-1.33-.1-2.65.14-3.95h.02c.48-2.31,1.1-4.42,1.85-6.33s1.66-3.58,2.75-5c1.08-1.43,2.34-2.61,3.76-3.55,1.42-.94,3.02-1.66,4.78-2.14s3.73-.72,5.9-.72c2.51,0,4.77.33,6.77.98,2.01.65,3.73,1.55,5.18,2.71,1.45,1.16,2.6,2.5,3.44,4.02.85,1.53,1.43,3.13,1.74,4.82.32,1.69.33,3.38.04,5.07Z"/>
    <path class="cls-1" d="M378.08,128.64c-.56-1.64-1.52-3-2.9-4.09-1.38-1.08-3.07-1.96-5.07-2.64-2.01-.67-4.18-1.14-6.52-1.41-2.34-.27-4.81-.4-7.42-.4s-5.21.12-7.82.36c-2.61.24-5.12.55-7.53.94-.68.1-1.39.41-2.14.94-.75.54-1.46,1.19-2.14,1.96-.67.77-1.24,1.57-1.7,2.39-.46.83-.79,1.57-.98,2.25-1.93,6.95-3.58,13.97-4.96,21.07-1.38,7.09-2.43,14.22-3.15,21.36l.03-.04c-.19,1.35.02,2.29.65,2.82.63.54,1.45.74,2.46.62s2.06-.51,3.15-1.16c1.08-.65,2.02-1.49,2.82-2.53.8-1.04,1.24-2.16,1.34-3.37.25-2.38.52-4.75.82-7.1.3-.09.6-.18.91-.27,1.61-.48,3.27-1,4.97-1.54,2.83,2.45,5.68,4.86,8.53,7.24,3.21,2.68,6.48,5.09,9.81,7.21.77.72,1.69.92,2.75.58,1.06-.34,2.07-.96,3.04-1.88.96-.92,1.78-1.98,2.46-3.19.68-1.2,1.04-2.38,1.09-3.51.04-1.14-.32-2.04-1.09-2.72-3.38-2.07-6.76-4.23-10.14-6.48-1.08-.72-2.16-1.47-3.22-2.25,2.35-1.04,4.61-2.16,6.78-3.34,2.61-1.42,5-2.96,7.17-4.63,2.17-1.66,3.96-3.44,5.36-5.32,1.4-1.88,2.32-3.91,2.75-6.08.48-2.22.44-4.15-.11-5.79ZM367.19,136.59c-.19.67-.8,1.42-1.81,2.24-1.02.82-2.45,1.69-4.31,2.61-1.86.92-4.12,1.87-6.77,2.86-2.65.99-5.63,2-8.94,3.04-2.12.67-4.39,1.33-6.8,1.99.14-1.01.3-2.02.46-3.02.73-4.58,1.59-9.07,2.59-13.47,2.04-.25,3.98-.46,5.81-.64,3.33-.31,6.26-.43,8.8-.36,2.53.08,4.63.28,6.3.62,1.66.34,2.89.86,3.69,1.56.8.7,1.12,1.56.98,2.57Z"/>
    <path class="cls-1" d="M191.49,232.82c-.74.51-1.48,1.01-2.24,1.52,3.32,1.72,6.67,3.39,10.03,5.03,5.17,2.51,10.26,5.12,15.28,7.82.68.43,1.05,1.05,1.12,1.85.07.8-.07,1.64-.43,2.54-.36.89-.86,1.69-1.48,2.39-.63.7-1.3,1.18-2.03,1.45-.72.27-1.42.18-2.1-.25v-.02c-5.07-2.65-10.07-5.41-14.99-8.25-2.9-1.68-5.82-3.32-8.76-4.91-.12,4.64-.32,9.32-.58,14.03,0,.92-.27,1.73-.8,2.43s-1.15,1.25-1.85,1.67c-.7.41-1.4.64-2.1.69-.7.05-1.28-.13-1.74-.54-.46-.41-.66-1.1-.62-2.06.29-5.02.49-9.99.62-14.92.12-4.92.18-9.84.18-14.74s-.1-9.88-.29-14.95c0-.77.22-1.53.65-2.28.43-.75,1-1.39,1.7-1.92.7-.53,1.4-.89,2.1-1.09.7-.19,1.29-.16,1.77.11.48.27.75.83.8,1.7h.02c.14,5.11.24,10.21.29,15.31.01,1.36.02,2.71.02,4.07,1.56-.98,3.06-2.02,4.5-3.1,2.39-1.79,4.71-3.67,6.95-5.65,2.25-1.98,4.51-4.06,6.81-6.23,2.29-2.17,4.72-4.46,7.28-6.88.72-.72,1.41-1.1,2.06-1.12.65-.02,1.24.18,1.77.62.53.43.91,1.01,1.12,1.74.22.72.24,1.5.07,2.32-.17.82-.59,1.57-1.27,2.25-2.7,2.51-5.36,4.88-7.97,7.1-2.61,2.22-5.21,4.35-7.82,6.37-2.61,2.03-5.3,4-8.07,5.9Z"/>
    <path class="cls-1" d="M230.29,211.41h-.01c-.39,4.54-.68,9.2-.87,13.98-.19,4.78-.29,9.58-.29,14.41s.12,9.56.36,14.19c.05.92-.16,1.79-.62,2.61-.46.82-1.03,1.48-1.7,1.99-.68.51-1.36.83-2.06.98-.7.15-1.29.04-1.77-.33-.48-.36-.75-1.05-.8-2.06-.24-4.68-.39-9.55-.43-14.59-.05-5.04-.01-10.11.11-15.21.12-5.09.42-10.03.91-14.81.05-.87.34-1.6.87-2.21.53-.6,1.16-1.05,1.88-1.34.72-.29,1.44-.4,2.14-.33.7.07,1.28.33,1.74.76.46.43.64,1.09.54,1.96Z"/>
    <path class="cls-1" d="M283.39,218.57c-.84-2.27-2.01-4.14-3.51-5.61-1.5-1.47-3.26-2.6-5.29-3.4-2.02-.8-4.27-1.32-6.73-1.56-2.47-.24-5.06-.26-7.79-.07-2.72.2-5.51.56-8.36,1.09-2.84.53-5.69,1.16-8.54,1.88-.39.15-.81.44-1.27.87-.46.44-.91.96-1.34,1.56-.44.61-.8,1.19-1.09,1.74-.29.55-.48,1.02-.58,1.41-.48,3.77-.8,7.73-.94,11.88-.14,4.16-.14,8.4,0,12.75.14,3.43.51,6.8,1.12,10.1.61,3.3,1.32,6.5,2.14,9.59h.01c.24.81.63,1.27,1.19,1.37.31.05.64.02.98-.1.13.02.28.02.44.01,3.52-.19,6.96-.7,10.32-1.52,3.35-.82,6.55-1.95,9.59-3.37,3.04-1.42,5.82-3.12,8.36-5.1,2.53-1.98,4.74-4.26,6.62-6.84,1.88-2.58,3.34-5.4,4.38-8.47,1.04-3.07,1.56-6.41,1.56-10.03,0-3.18-.43-5.91-1.27-8.18ZM277.05,237.53c-.72,2.12-1.83,4.11-3.33,5.97-1.5,1.86-3.46,3.53-5.9,5-2.43,1.47-5.38,2.68-8.83,3.62-3.39.92-7.31,1.54-11.76,1.83-.7-2.61-1.28-5.3-1.75-8.04-.53-3.12-.87-6.22-1.01-9.31-.15-4.25-.15-8.31,0-12.2.08-2.13.21-4.17.38-6.13,2.74-.59,5.37-1.06,7.91-1.41,3.69-.51,7.08-.66,10.17-.47,3.09.2,5.77.81,8.04,1.85,2.27,1.03,4.03,2.58,5.29,4.63,1.25,2.05,1.88,4.72,1.88,8,0,2.32-.37,4.54-1.09,6.66Z"/>
  </g>
</svg>