<?xml version="1.0" encoding="UTF-8"?>
<svg id="Layer_1" data-name="Layer 1" xmlns="http://www.w3.org/2000/svg" viewBox="0 0 874.29 565.72">
  <defs>
    <style>
      .cls-1 {
        fill: #fff;
      }

      .cls-2 {
        fill: #130d5e;
        stroke: #fff;
        stroke-width: 20px;
      }
    </style>
  </defs>
  <g id="Layer_2" data-name="Layer 2">
    <path class="cls-2" d="M84,534.75l233.85-74.34c44.05,19.57,95.3,30.79,149.98,30.79,164.57,0,297.97-101.53,297.97-226.75S632.4,37.7,467.83,37.7s-297.98,101.53-297.98,226.75c0,56.12,26.79,107.48,71.19,147.08l-157.03,123.23h-.01,0Z"/>
  </g>
  <g>
    <path class="cls-1" d="M406.54,152.04c-.98-2.61-2.33-4.76-4.05-6.46-1.73-1.69-3.75-3-6.09-3.92-2.34-.91-4.92-1.51-7.76-1.79-2.84-.27-5.83-.3-8.97-.08-3.14.22-6.35.64-9.63,1.25-3.28.61-6.56,1.34-9.84,2.17-.45.17-.93.5-1.46,1-.53.5-1.04,1.1-1.54,1.79s-.92,1.36-1.25,2c-.34.64-.56,1.19-.67,1.63-.55,4.34-.91,8.9-1.08,13.68-.17,4.78-.17,9.68,0,14.68.16,3.95.59,7.83,1.29,11.64.69,3.81,1.51,7.49,2.46,11.05h.02c.28.93.74,1.46,1.38,1.57.34.06.7.03,1.08-.09.16.02.33.02.53.01,4.06-.22,8.02-.81,11.89-1.75,3.86-.95,7.55-2.24,11.05-3.88,3.5-1.64,6.71-3.6,9.63-5.88,2.92-2.28,5.46-4.9,7.63-7.88,2.17-2.97,3.85-6.23,5.05-9.76,1.19-3.53,1.79-7.38,1.79-11.55,0-3.67-.49-6.82-1.46-9.43ZM399.26,173.9c-.84,2.45-2.12,4.74-3.84,6.88-1.73,2.15-3.99,4.06-6.8,5.76-2.81,1.7-6.2,3.09-10.18,4.17-3.9,1.07-8.4,1.77-13.52,2.11-.82-3.02-1.49-6.11-2.03-9.29-.61-3.59-1-7.16-1.17-10.72-.17-4.89-.17-9.57,0-14.05.09-2.45.23-4.8.43-7.05,3.16-.69,6.2-1.23,9.12-1.63,4.25-.58,8.16-.76,11.72-.54,3.56.23,6.65.94,9.26,2.13,2.61,1.2,4.64,2.98,6.09,5.34,1.45,2.37,2.17,5.44,2.17,9.22,0,2.67-.42,5.22-1.25,7.67Z"/>
    <path class="cls-1" d="M465.47,189.59c-2.73-5.34-5.48-10.76-8.26-16.27-2.78-5.51-5.56-11.03-8.34-16.56-2.78-5.53-5.56-11.02-8.34-16.47h0c-.28-.73-.76-1.06-1.46-1.01-.69.06-1.46.36-2.29.92-.45.3-.88.65-1.28,1.04-.15.14-.31.29-.45.45-.12.13-.24.26-.35.4-.06.06-.11.13-.17.2-.17.22-.33.43-.49.66-.03.05-.07.11-.11.17-3.89,6.12-7.34,12.14-10.34,18.06s-5.71,11.73-8.13,17.43c-2.41,5.7-4.74,11.22-6.96,16.56h.01c-.39,1.06-.45,1.94-.17,2.63.28.69.76,1.22,1.46,1.58.69.36,1.46.53,2.29.5.84-.03,1.63-.28,2.38-.75.75-.47,1.32-1.18,1.71-2.13,1.59-3.86,3.13-7.81,4.65-11.83,3.34-.25,6.54-.44,9.6-.6,3.34-.17,6.68-.3,10.05-.38s6.85-.12,10.47-.12c.34,0,.69-.06,1.03-.19,1.96,3.82,3.93,7.66,5.91,11.54.39.84.96,1.3,1.71,1.38s1.52-.08,2.33-.5c.8-.42,1.55-1,2.25-1.75s1.18-1.57,1.46-2.46c.28-.89.22-1.72-.17-2.5ZM444.03,174.94c-3.4.09-6.79.23-10.18.42-3.09.18-6.27.39-9.55.64.76-1.98,1.53-3.96,2.3-5.94,1.78-4.56,3.68-9.01,5.71-13.35.87-1.87,1.78-3.7,2.74-5.5,2.1,4.07,4.2,8.1,6.28,12.1,2.01,3.84,4.01,7.7,6.01,11.58-1.12.01-2.22.02-3.31.05Z"/>
    <path class="cls-1" d="M513.6,147.55c-1.67,3.56-3.37,7.1-5.09,10.63-1.72,3.53-3.41,7.16-5.05,10.88-1.64,3.73-3.21,7.65-4.71,11.76-1.5,4.12-2.86,8.56-4.09,13.35-.31,1.05-.77,1.92-1.36,2.59,0,.01-.01.03-.02.04-.59.92-1.25,1.7-2,2.34s-1.49,1.01-2.21,1.13c-.72.11-1.28-.22-1.67-1-5.06-8.12-9.73-16.58-14.01-25.4-4.28-8.81-8.17-17.95-11.68-27.4-.28-.78-.28-1.67,0-2.67.28-1,.74-1.95,1.38-2.84.64-.89,1.33-1.61,2.08-2.17s1.46-.81,2.13-.75,1.14.53,1.42,1.42c3.5,9.23,7.37,18.2,11.59,26.9,3.18,6.55,6.58,12.9,10.21,19.05.78-2.83,1.57-5.62,2.39-8.38,1.72-5.81,3.63-11.44,5.71-16.89s4.43-10.76,7.05-15.93c.45-.95,1.06-1.58,1.84-1.92.78-.33,1.61-.42,2.5-.25.89.17,1.7.5,2.42,1,.72.5,1.22,1.14,1.5,1.92.28.78.17,1.64-.33,2.59Z"/>
    <path class="cls-1" d="M527.61,159.89c-.22,5.5-.33,11.04-.33,16.6s.14,11.01.42,16.35c.05,1.06-.18,2.06-.71,3-.53.95-1.18,1.71-1.96,2.29-.78.58-1.57.96-2.38,1.13s-1.49.04-2.04-.38c-.56-.42-.86-1.21-.92-2.38-.28-5.39-.45-11-.5-16.81-.06-5.81-.01-11.65.12-17.52.14-5.87.49-11.55,1.04-17.06.05-1,.39-1.85,1-2.54.61-.69,1.33-1.21,2.17-1.54.83-.33,1.65-.46,2.46-.38.81.08,1.47.38,2,.88.53.5.74,1.25.62,2.25h.01c-.45,5.24-.78,10.6-1,16.11Z"/>
    <path class="cls-1" d="M589.78,152.04c-.97-2.61-2.32-4.76-4.04-6.46-1.73-1.69-3.76-3-6.09-3.92-2.34-.91-4.92-1.51-7.76-1.79-2.84-.27-5.83-.3-8.97-.08-3.14.22-6.35.64-9.63,1.25-3.28.61-6.56,1.34-9.84,2.17-.45.17-.93.5-1.46,1-.53.5-1.04,1.1-1.54,1.79s-.92,1.36-1.25,2c-.34.64-.56,1.19-.67,1.63-.55,4.34-.91,8.9-1.08,13.68-.17,4.78-.17,9.68,0,14.68.16,3.95.59,7.83,1.29,11.64.69,3.81,1.51,7.49,2.46,11.05h.01c.28.93.74,1.46,1.38,1.57.34.06.7.03,1.08-.09.16.02.33.02.53.01,4.06-.22,8.02-.81,11.89-1.75,3.86-.95,7.55-2.24,11.05-3.88,3.5-1.64,6.71-3.6,9.63-5.88,2.92-2.28,5.46-4.9,7.63-7.88,2.17-2.97,3.85-6.23,5.05-9.76,1.19-3.53,1.79-7.38,1.79-11.55,0-3.67-.49-6.82-1.46-9.43ZM582.5,173.9c-.84,2.45-2.12,4.74-3.84,6.88-1.73,2.15-3.99,4.06-6.8,5.76-2.81,1.7-6.21,3.08-10.18,4.17-3.9,1.07-8.4,1.77-13.52,2.11-.82-3.02-1.49-6.11-2.03-9.29-.61-3.59-1-7.16-1.17-10.72-.17-4.89-.17-9.57,0-14.05.09-2.45.23-4.8.43-7.05,3.15-.69,6.2-1.23,9.12-1.63,4.26-.58,8.16-.76,11.72-.54,3.56.23,6.65.94,9.26,2.13,2.61,1.2,4.64,2.98,6.09,5.34,1.45,2.37,2.17,5.44,2.17,9.22,0,2.67-.42,5.22-1.25,7.67Z"/>
    <path class="cls-1" d="M255.15,254.03c-.03,4.03-.07,8.13-.12,12.3-.06,4.17-.08,8.31-.08,12.43,0,2.84-.33,5.49-1,7.97-.67,2.47-1.63,4.73-2.88,6.76-1.25,2.03-2.71,3.78-4.38,5.25-1.67,1.47-3.52,2.6-5.55,3.38-2.03.78-4.16,1.17-6.38,1.17s-4.14-.29-6.09-.88c-1.95-.58-3.73-1.42-5.34-2.5-1.61-1.08-2.95-2.29-4-3.63-.45-.61-.61-1.39-.5-2.34.11-.95.44-1.9,1-2.88.56-.97,1.2-1.82,1.92-2.54.72-.72,1.45-1.2,2.17-1.42.72-.22,1.32,0,1.83.66.83,1.11,1.97,2.14,3.42,3.09,1.45.95,2.97,1.72,4.59,2.33,1.61.61,3.2.92,4.75.92s2.78-.11,3.84-.33c1.06-.22,1.93-.57,2.63-1.04.69-.47,1.22-1.11,1.58-1.92s.6-1.79.71-2.96c.11-1.17.17-2.59.17-4.25,0-4.28-.07-8.6-.21-12.97-.14-4.36-.32-8.66-.54-12.89-.22-4.22-.39-8.31-.5-12.26-.06-1.11.19-2.1.75-2.96.56-.86,1.28-1.56,2.17-2.08.89-.53,1.78-.83,2.67-.92.89-.08,1.63.11,2.21.58.58.47.93,1.27,1.04,2.38.11,3.67.15,7.52.12,11.55Z"/>
    <path class="cls-1" d="M320.95,258.71c-.92-2.75-2.21-5.28-3.88-7.59s-3.71-4.31-6.13-6.01c-2.42-1.69-5.1-3.01-8.05-3.96-2.95-.95-6.18-1.42-9.68-1.42-3.28,0-6.41.65-9.38,1.96-2.98,1.3-5.74,3.12-8.3,5.46-2.55,2.33-4.79,5.06-6.71,8.17s-3.39,6.49-4.42,10.13c-1.03,3.64-1.54,7.41-1.54,11.3l-.02.03c0,3.23.5,6.24,1.5,9.05s2.53,5.27,4.59,7.38c2.06,2.11,4.65,3.77,7.76,4.96,3.12,1.19,6.76,1.79,10.93,1.79,2.73,0,5.47-.32,8.22-.96,2.76-.63,5.42-1.57,8.01-2.79,2.59-1.23,4.99-2.74,7.22-4.55,2.22-1.81,4.18-3.91,5.88-6.3,1.69-2.39,3.01-5.09,3.96-8.09.95-3,1.42-6.28,1.42-9.84,0-3.06-.46-5.97-1.38-8.72ZM314.07,278.05c-.5,1.8-1.32,3.46-2.46,4.96s-2.61,2.78-4.42,3.84c-1.8,1.06-4.03,1.86-6.67,2.42-2.64.55-5.68.83-9.13.83-3.01,0-5.66-.34-7.97-1.04-2.3-.7-4.29-1.64-5.96-2.84-1.67-1.2-3.03-2.56-4.09-4.09-1.05-1.53-1.82-3.17-2.29-4.92-.47-1.76-.71-3.52-.71-5.3v.03c-.01-2.95.21-5.61.66-7.97.45-2.37,1.17-4.45,2.17-6.26s2.25-3.33,3.75-4.55c1.5-1.22,3.31-2.13,5.42-2.71,2.11-.59,4.48-.88,7.09-.88,2.78,0,5.44.39,7.97,1.17,2.53.78,4.84,1.86,6.92,3.25,2.09,1.39,3.94,3.03,5.55,4.92,1.61,1.89,2.84,3.96,3.67,6.21s1.25,4.63,1.25,7.13c0,2.06-.25,3.99-.75,5.8Z"/>
    <path class="cls-1" d="M372.71,241.72c-.06,5.23-.15,10.68-.29,16.35-.14,5.67-.26,11.33-.38,16.97-.11,5.64-.2,11.05-.25,16.22,0,1.06-.26,2-.79,2.84-.53.83-1.15,1.5-1.88,2-.72.5-1.45.81-2.17.92-.72.11-1.33-.05-1.83-.5-.5-.44-.75-1.2-.75-2.25.05-5.23.07-10.66.04-16.31,0-2.03-.02-4.07-.03-6.1-2.83.21-5.86.5-9.06.85-3.81.42-7.67.9-11.59,1.46-2.28.33-4.52.68-6.73,1.06-.12,6.33-.2,12.65-.25,18.95,0,.95-.25,1.81-.75,2.59-.5.78-1.11,1.45-1.83,2-.72.55-1.45.92-2.17,1.08-.72.17-1.33.08-1.83-.25-.5-.33-.75-.97-.75-1.92.05-8.45.01-16.88-.12-25.27-.14-8.4-.18-16.82-.13-25.27,0-1.17.29-2.22.88-3.17.58-.94,1.28-1.67,2.09-2.17s1.63-.78,2.46-.83c.83-.05,1.53.18,2.09.71.56.53.83,1.41.83,2.63h-.01c-.05,7.22-.15,14.46-.31,21.73,3.14-.53,6.33-1.03,9.57-1.51,4-.58,7.94-1.08,11.8-1.5,1.99-.22,3.92-.41,5.77-.56-.01-.47-.01-.93-.01-1.4-.03-5.62.01-11.01.12-16.18,0-1.11.29-2.11.88-3,.58-.89,1.28-1.61,2.08-2.17.81-.55,1.63-.88,2.46-.96s1.53.1,2.08.54c.56.45.81,1.25.75,2.42h.01Z"/>
    <path class="cls-1" d="M428.28,242.72h-.01c-.17,5.34-.36,10.8-.58,16.39-.22,5.59-.42,11.21-.58,16.85-.17,5.64-.31,11.19-.42,16.64,0,1.17-.24,2.16-.71,2.96-.47.81-1.04,1.45-1.71,1.92-.67.47-1.32.71-1.96.71-.09,0-.18-.01-.27-.02-.08.03-.15.05-.23.07-.75.2-1.4.07-1.96-.38-2.45-2.06-4.99-4.28-7.63-6.67-2.64-2.39-5.31-4.98-8.01-7.76-2.7-2.78-5.3-5.77-7.8-8.97-2.33-2.98-4.51-6.17-6.52-9.56,0,2.09.02,4.19.04,6.29.08,8.26.07,16.5-.04,24.73,0,1-.26,1.89-.79,2.67-.53.78-1.21,1.4-2.04,1.88-.83.47-1.67.75-2.5.83s-1.53-.1-2.08-.54c-.56-.45-.81-1.17-.75-2.17h-.01c.05-7.94.19-15.89.42-23.85.22-7.95.39-15.96.5-24.02,0-.95.25-1.86.75-2.75.5-.89,1.11-1.64,1.83-2.25.72-.61,1.45-1.03,2.17-1.25.72-.22,1.32-.18,1.79.12.15.1.28.24.38.42.31.22.56.57.77,1.04h-.02c1.45,3.95,3.21,7.67,5.3,11.18,2.09,3.5,4.38,6.81,6.88,9.93,2.5,3.11,5.09,6.05,7.76,8.8s5.32,5.34,7.97,7.76c.68.62,1.35,1.24,2.02,1.84.02-2.27.03-4.55.03-6.85v-16.68c0-5.59.08-11.14.25-16.64.06-1,.36-1.92.92-2.75.56-.83,1.21-1.47,1.96-1.92.75-.44,1.51-.69,2.29-.75.78-.05,1.42.12,1.92.54s.72,1.15.67,2.21Z"/>
    <path class="cls-1" d="M459.21,242.51c.09-.11.17-.22.26-.32-.06.06-.12.12-.17.19-.03.04-.07.09-.09.13Z"/>
    <path class="cls-1" d="M490.24,289.68c-2.73-5.34-5.48-10.77-8.26-16.27-2.78-5.51-5.56-11.03-8.34-16.56-2.78-5.53-5.56-11.02-8.34-16.47-.28-.72-.76-1.05-1.46-1-.69.06-1.46.36-2.29.92-.55.37-1.07.8-1.55,1.31-.18.18-.35.37-.53.58-.09.1-.17.21-.26.32-.1.11-.19.23-.26.35-.07.09-.13.19-.2.29-.12.17-.22.34-.32.51-3.79,5.97-7.14,11.84-10.07,17.62-3,5.92-5.71,11.73-8.13,17.43-2.41,5.7-4.74,11.22-6.96,16.56v.02c-.38,1.06-.44,1.94-.16,2.63.28.69.76,1.22,1.46,1.58.69.36,1.46.53,2.29.5.84-.03,1.63-.28,2.38-.75s1.32-1.18,1.71-2.13c1.59-3.87,3.14-7.82,4.66-11.85,3.34-.25,6.54-.44,9.6-.6,3.34-.17,6.68-.3,10.05-.38,3.37-.08,6.85-.12,10.47-.12.34,0,.69-.06,1.03-.19,1.96,3.82,3.93,7.66,5.9,11.53.39.84.96,1.3,1.71,1.38.75.08,1.52-.08,2.33-.5.8-.42,1.55-1,2.25-1.75s1.18-1.57,1.46-2.46c.28-.89.22-1.72-.17-2.5ZM468.81,275.04c-3.4.09-6.79.23-10.18.42-3.09.18-6.27.39-9.55.64.75-1.97,1.52-3.95,2.29-5.93,1.78-4.56,3.68-9.01,5.71-13.35.88-1.87,1.79-3.71,2.74-5.51,2.11,4.06,4.2,8.09,6.28,12.09,2.01,3.85,4.02,7.71,6.02,11.59-1.12.01-2.22.02-3.31.05Z"/>
    <path class="cls-1" d="M529.73,244.42c-.03.92-.2,1.83-.5,2.75-.31.92-.74,1.68-1.29,2.29-.56.61-1.2.92-1.92.92-4.73,0-9.36.08-13.89.25-.58.02-1.17.04-1.75.07-.09,6.88-.1,13.84-.05,20.89.05,7.95.28,15.79.67,23.52.06,1-.17,1.93-.67,2.79-.5.86-1.11,1.54-1.83,2.04s-1.47.8-2.25.92c-.78.11-1.43-.03-1.96-.42-.53-.39-.82-1.11-.88-2.17h.01c-.39-7.62-.6-15.28-.63-22.98-.03-7.7.01-15.39.12-23.06.02-.4.08-.79.18-1.17-1.52.08-3.04.18-4.56.28-4.53.31-9.16.65-13.89,1.04-.95.06-1.58-.24-1.92-.88-.33-.64-.45-1.46-.33-2.46.11-1,.4-2.03.88-3.09.47-1.06,1.06-1.95,1.75-2.67.69-.72,1.46-1.11,2.29-1.17v.02c4.57-.33,9.06-.57,13.48-.71,4.42-.14,8.84-.21,13.26-.21h13.55c.78,0,1.33.31,1.67.92.33.61.49,1.38.46,2.29Z"/>
    <path class="cls-1" d="M579.15,241.72c-.06,5.23-.15,10.68-.29,16.35s-.26,11.33-.38,16.97c-.11,5.64-.2,11.05-.25,16.22,0,1.06-.26,2-.79,2.84-.53.83-1.16,1.5-1.88,2-.72.5-1.45.81-2.17.92-.72.11-1.33-.05-1.83-.5-.5-.44-.75-1.2-.75-2.25.05-5.23.07-10.66.04-16.31,0-2.03-.02-4.07-.03-6.1-2.83.21-5.86.5-9.06.85-3.81.42-7.67.9-11.59,1.46-2.28.33-4.52.68-6.73,1.06-.12,6.33-.2,12.65-.25,18.95,0,.95-.25,1.81-.75,2.59-.5.78-1.11,1.45-1.83,2-.72.55-1.45.92-2.17,1.08-.72.16-1.33.08-1.83-.25-.5-.33-.75-.97-.75-1.92.05-8.45.01-16.88-.12-25.27-.14-8.4-.18-16.82-.13-25.27,0-1.17.29-2.22.88-3.17.58-.94,1.28-1.67,2.09-2.17.8-.5,1.63-.78,2.46-.83.83-.05,1.53.18,2.09.71.55.53.83,1.41.83,2.63h-.01c-.05,7.22-.15,14.46-.31,21.73,3.14-.53,6.33-1.03,9.57-1.51,4-.58,7.94-1.08,11.8-1.5,1.99-.22,3.92-.41,5.77-.56-.01-.47-.01-.93-.01-1.4-.03-5.62.01-11.01.12-16.18,0-1.11.29-2.11.88-3,.58-.89,1.28-1.61,2.08-2.17.81-.55,1.63-.88,2.46-.96s1.53.1,2.08.54c.55.45.81,1.25.75,2.42h.01Z"/>
    <path class="cls-1" d="M609.02,242.38s-.07.09-.09.13c.09-.11.17-.22.26-.32-.06.06-.12.12-.17.19Z"/>
    <path class="cls-1" d="M639.96,289.68c-2.73-5.34-5.48-10.77-8.26-16.27-2.78-5.51-5.56-11.03-8.34-16.56-2.78-5.53-5.56-11.02-8.34-16.47-.28-.72-.76-1.05-1.46-1-.69.06-1.46.36-2.29.92-.55.37-1.07.8-1.55,1.31-.18.18-.35.37-.53.58-.09.1-.17.21-.26.32-.1.11-.19.23-.26.35-.07.09-.13.19-.2.29-.12.17-.22.34-.32.51-3.79,5.97-7.14,11.84-10.07,17.62-3,5.92-5.71,11.73-8.13,17.43-2.41,5.7-4.74,11.22-6.96,16.56v.02c-.38,1.06-.44,1.94-.16,2.63.28.69.76,1.22,1.46,1.58.69.36,1.46.53,2.29.5.84-.03,1.63-.28,2.38-.75s1.32-1.18,1.71-2.13c1.59-3.87,3.14-7.82,4.66-11.85,3.34-.25,6.54-.44,9.6-.6,3.34-.17,6.68-.3,10.05-.38,3.37-.08,6.85-.12,10.47-.12.34,0,.69-.06,1.03-.19,1.96,3.82,3.93,7.66,5.9,11.53.39.84.96,1.3,1.71,1.38.75.08,1.52-.08,2.33-.5.8-.42,1.55-1,2.25-1.75s1.18-1.57,1.46-2.46c.28-.89.22-1.72-.17-2.5ZM618.53,275.04c-3.4.09-6.79.23-10.18.42-3.09.18-6.27.39-9.55.64.75-1.97,1.52-3.95,2.29-5.93,1.78-4.56,3.68-9.01,5.71-13.35.88-1.87,1.79-3.71,2.74-5.51,2.11,4.06,4.2,8.09,6.28,12.09,2.01,3.85,4.02,7.71,6.02,11.59-1.12.01-2.22.02-3.31.05Z"/>
    <path class="cls-1" d="M691.43,242.72h-.01c-.17,5.34-.36,10.8-.58,16.39-.22,5.59-.42,11.21-.58,16.85-.17,5.64-.31,11.19-.42,16.64,0,1.17-.24,2.16-.71,2.96-.47.81-1.04,1.45-1.71,1.92-.67.47-1.32.71-1.96.71-.09,0-.17,0-.26-.01-.08.02-.15.04-.23.06-.75.2-1.4.07-1.96-.38-2.45-2.06-4.99-4.28-7.63-6.67s-5.31-4.98-8.01-7.76c-2.7-2.78-5.3-5.77-7.8-8.97-2.33-2.98-4.51-6.17-6.52-9.56,0,2.09.02,4.19.04,6.29.08,8.25.07,16.5-.04,24.73,0,1-.26,1.89-.79,2.67-.53.78-1.21,1.4-2.04,1.88-.83.47-1.67.75-2.5.83-.83.08-1.53-.1-2.08-.54-.56-.45-.81-1.17-.75-2.17h-.01c.05-7.94.19-15.89.42-23.85.22-7.95.39-15.96.5-24.02,0-.95.25-1.86.75-2.75.5-.89,1.11-1.64,1.83-2.25.72-.61,1.45-1.03,2.17-1.25.72-.22,1.32-.18,1.79.12.15.1.28.24.38.42.31.22.56.57.77,1.04h-.02c1.45,3.95,3.21,7.67,5.3,11.18,2.08,3.5,4.38,6.81,6.88,9.93,2.5,3.11,5.09,6.05,7.76,8.8,2.67,2.75,5.32,5.34,7.97,7.76.68.62,1.35,1.23,2.01,1.84.02-2.27.03-4.55.03-6.85v-16.68c0-5.59.08-11.14.25-16.64.06-1,.36-1.92.92-2.75.56-.83,1.21-1.47,1.96-1.92.75-.44,1.51-.69,2.29-.75.78-.05,1.42.12,1.92.54s.72,1.15.67,2.21Z"/>
    <path class="cls-1" d="M411.16,389.6c-4.39-2.45-8.82-4.98-13.3-7.59-2.57-1.49-5.11-3.08-7.62-4.76.49-.21.98-.43,1.46-.65,2.92-1.34,5.69-2.8,8.3-4.38,2.61-1.59,4.92-3.27,6.92-5.05,2-1.78,3.57-3.68,4.71-5.71,1.14-2.03,1.71-4.21,1.71-6.38s-.44-4.06-1.33-5.67c-.89-1.61-2.17-2.98-3.84-4.09-1.67-1.11-3.6-1.99-5.8-2.63-2.19-.64-4.6-1.1-7.21-1.38-2.62-.27-5.36-.38-8.22-.33-2.87.06-5.77.22-8.72.5-2.94.27-5.83.64-8.67,1.08-.56.11-1.13.43-1.71.96-.59.53-1.14,1.16-1.67,1.88-.53.72-.96,1.46-1.29,2.21s-.53,1.38-.58,1.88c-.56,7.9-.78,15.89-.67,23.98.11,8.09.55,16.27,1.33,24.56h0c.11.96.46,1.58,1.04,1.89.59.3,1.28.33,2.09.08s1.59-.69,2.34-1.33c.75-.64,1.36-1.39,1.83-2.25.47-.86.65-1.76.54-2.71-.31-3.29-.57-6.55-.79-9.78.73-.22,1.49-.46,2.26-.7,1.95-.61,3.95-1.28,6.01-2.02,4.09,3.04,8.15,6,12.16,8.89,4.25,3.05,8.52,5.78,12.8,8.17.72.56,1.47.69,2.25.38.78-.31,1.53-.85,2.25-1.63.72-.78,1.3-1.66,1.75-2.63.45-.97.67-1.9.67-2.79s-.33-1.55-1-2ZM371.53,375.32c-.1-2.11-.17-4.21-.23-6.3-.16-5.91-.12-11.73.15-17.46,2.51-.33,4.95-.58,7.31-.77,3.86-.3,7.37-.4,10.51-.29,3.15.11,5.88.44,8.22,1,2.33.55,4.14,1.39,5.42,2.5,1.28,1.12,1.92,2.56,1.92,4.34,0,1.11-.52,2.24-1.58,3.38-1.06,1.14-2.61,2.29-4.67,3.46-2.06,1.16-4.56,2.35-7.51,3.54-2.95,1.2-6.26,2.41-9.93,3.63-2.97.99-6.17,1.98-9.61,2.97Z"/>
    <path class="cls-1" d="M475.6,358.8c-.92-2.75-2.21-5.28-3.88-7.59-1.67-2.31-3.71-4.31-6.13-6.01-2.42-1.69-5.1-3.01-8.05-3.96-2.95-.95-6.18-1.42-9.68-1.42-3.28,0-6.41.65-9.38,1.96-2.98,1.3-5.74,3.12-8.3,5.46-2.55,2.33-4.79,5.06-6.71,8.17-1.92,3.11-3.39,6.49-4.42,10.13-1.03,3.64-1.54,7.41-1.54,11.3l-.02.03c0,3.23.5,6.24,1.5,9.05s2.53,5.27,4.59,7.38,4.64,3.77,7.76,4.96c3.12,1.19,6.76,1.79,10.93,1.79,2.73,0,5.47-.32,8.22-.96,2.76-.63,5.43-1.57,8.01-2.79,2.59-1.23,4.99-2.74,7.22-4.55,2.22-1.81,4.18-3.91,5.88-6.3,1.69-2.39,3.01-5.09,3.96-8.09s1.42-6.28,1.42-9.84c0-3.06-.46-5.97-1.38-8.72ZM468.71,378.14c-.5,1.8-1.32,3.46-2.46,4.96s-2.61,2.78-4.42,3.84c-1.8,1.06-4.03,1.86-6.67,2.42-2.64.55-5.68.83-9.13.83-3.01,0-5.66-.34-7.97-1.04-2.3-.7-4.29-1.64-5.96-2.84-1.67-1.2-3.03-2.56-4.09-4.09-1.05-1.53-1.82-3.17-2.29-4.92-.47-1.76-.71-3.52-.71-5.3v.03c-.01-2.95.21-5.61.66-7.97.45-2.37,1.17-4.45,2.17-6.26s2.25-3.33,3.75-4.55,3.31-2.13,5.42-2.71c2.11-.59,4.48-.88,7.09-.88,2.78,0,5.44.39,7.97,1.17,2.53.78,4.84,1.86,6.92,3.25,2.09,1.39,3.94,3.03,5.55,4.92,1.61,1.89,2.84,3.96,3.67,6.21.83,2.25,1.25,4.63,1.25,7.13,0,2.06-.25,3.99-.75,5.8Z"/>
    <path class="cls-1" d="M530.77,380.58c0,2.45-.47,4.66-1.42,6.63-.95,1.97-2.2,3.73-3.75,5.25-1.56,1.53-3.28,2.84-5.17,3.92s-3.84,2.03-5.84,2.84c-2,.81-3.89,1.45-5.67,1.92-1.78.47-3.31.82-4.59,1.04-.83.22-1.54.07-2.13-.46-.58-.53-1-1.22-1.25-2.09-.25-.86-.35-1.78-.29-2.75.05-.97.3-1.82.75-2.54.44-.72,1.08-1.17,1.92-1.33,3.56-.72,6.53-1.5,8.92-2.33s4.32-1.68,5.8-2.54c1.47-.86,2.52-1.67,3.13-2.42s.92-1.4.92-1.96c0-1.17-.6-2.25-1.79-3.25-1.2-1-2.82-1.92-4.88-2.75s-4.41-1.6-7.05-2.29c-2.64-.69-5.48-1.33-8.51-1.92-3.03-.58-6.08-1.11-9.13-1.58-3.06-.47-6.03-.93-8.92-1.38-.56-.05-.92-.33-1.08-.83-.17-.5-.22-1.1-.17-1.79.05-.7.19-1.39.42-2.09.22-.69.47-1.29.75-1.79,2.61-3.95,5.48-7.42,8.59-10.43,3.11-3,6.46-5.57,10.05-7.72,3.59-2.14,7.39-3.86,11.43-5.17,4.03-1.31,8.24-2.21,12.64-2.71.89-.11,1.49.14,1.79.75.08.16.14.33.18.51,0,.01.01.03.01.04.08.19.14.4.19.63.28,1.22.51,2.54.71,3.96.19,1.42.35,2.84.46,4.25.11,1.42.11,2.82,0,4.21,0,.83-.29,1.58-.88,2.25-.58.67-1.28,1.2-2.09,1.58-.81.39-1.6.6-2.38.63-.78.03-1.43-.15-1.96-.54-.53-.39-.76-1.06-.71-2h0c0-.79.01-1.64.04-2.55.03-.92-.01-1.83-.12-2.75-.04-.35-.08-.69-.13-1.01-2.64.34-5.15.88-7.55,1.59-2.89.86-5.59,1.91-8.09,3.13-2.5,1.22-4.84,2.61-7.01,4.17-2.15,1.54-4.14,3.19-5.99,4.95.65.09,1.33.19,2.02.29,2.64.39,5.38.85,8.22,1.38,2.84.53,5.69,1.14,8.55,1.83,2.86.7,5.55,1.52,8.05,2.46,2.5.95,4.74,2.03,6.71,3.25,1.97,1.22,3.52,2.61,4.63,4.17,1.11,1.56,1.67,3.34,1.67,5.34Z"/>
    <path class="cls-1" d="M581.39,380.58c0,2.45-.47,4.66-1.42,6.63-.95,1.97-2.2,3.73-3.75,5.25-1.56,1.53-3.28,2.84-5.17,3.92s-3.84,2.03-5.84,2.84c-2,.81-3.89,1.45-5.67,1.92-1.78.47-3.31.82-4.59,1.04-.83.22-1.54.07-2.13-.46-.58-.53-1-1.22-1.25-2.09-.25-.86-.35-1.78-.29-2.75.05-.97.3-1.82.75-2.54.44-.72,1.08-1.17,1.92-1.33,3.56-.72,6.53-1.5,8.92-2.33s4.32-1.68,5.8-2.54c1.47-.86,2.51-1.67,3.13-2.42.61-.75.92-1.4.92-1.96,0-1.17-.6-2.25-1.79-3.25-1.2-1-2.82-1.92-4.88-2.75s-4.41-1.6-7.05-2.29c-2.64-.69-5.48-1.33-8.51-1.92-3.03-.58-6.08-1.11-9.13-1.58-3.06-.47-6.03-.93-8.92-1.38-.56-.05-.92-.33-1.08-.83-.17-.5-.22-1.1-.17-1.79.05-.7.19-1.39.42-2.09.22-.69.47-1.29.75-1.79,2.61-3.95,5.48-7.42,8.59-10.43,3.11-3,6.46-5.57,10.05-7.72,3.59-2.14,7.4-3.86,11.43-5.17,4.03-1.31,8.24-2.21,12.64-2.71.89-.11,1.49.14,1.79.75.08.16.14.33.18.51,0,.01.01.03.01.04.08.19.14.4.19.63.28,1.22.51,2.54.71,3.96.19,1.42.35,2.84.46,4.25.11,1.42.11,2.82,0,4.21,0,.83-.29,1.58-.88,2.25-.58.67-1.28,1.2-2.08,1.58-.81.39-1.6.6-2.38.63-.78.03-1.43-.15-1.96-.54-.53-.39-.77-1.06-.71-2h0c0-.79,0-1.64.04-2.55.03-.92-.01-1.83-.12-2.75-.04-.35-.08-.69-.12-1.01-2.64.34-5.17.87-7.57,1.59-2.89.86-5.59,1.91-8.09,3.13-2.5,1.22-4.84,2.61-7.01,4.17-2.15,1.54-4.15,3.19-5.99,4.95.65.09,1.33.19,2.02.29,2.64.39,5.38.85,8.22,1.38,2.84.53,5.68,1.14,8.55,1.83,2.86.7,5.55,1.52,8.05,2.46,2.5.95,4.74,2.03,6.71,3.25,1.97,1.22,3.52,2.61,4.63,4.17,1.11,1.56,1.67,3.34,1.67,5.34Z"/>
  </g>
</svg>